<svg width="754" height="847" viewBox="0 0 754 847" fill="none" xmlns="http://www.w3.org/2000/svg">
<path fill-rule="evenodd" clip-rule="evenodd" d="M513.843 3.21476C487.578 -6.68242 459.52 12.729 459.52 40.7973L459.52 348.672L456.977 346.928L455.004 345.679L449.244 342.319L448.336 341.809L442.416 338.609L439.987 337.425L433.747 334.705L432.447 334.172L426.207 331.772L424.611 331.206L418.211 329.126L416.612 328.652L410.052 326.892L407.748 326.365L401.028 325.085L398.914 324.755L392.354 323.955L390.76 323.801L384.04 323.321L382.504 323.248L375.624 323.088L373.358 323.116L366.638 323.436L365.126 323.544L358.406 324.184L356.054 324.496L349.494 325.616L348.019 325.904L341.459 327.344L341 327.461V420.274C351.028 413.173 363.277 409 376.5 409C410.465 409 438 436.534 438 470.5C438 504.465 410.465 532 376.5 532C342.534 532 315 504.465 315 470.5C315 470.333 315.001 470.166 315.002 470H315V468V336.624L314.502 336.853L308.582 339.893L307.983 340.209L302.063 343.409L300.051 344.593L294.291 348.273L292.563 349.459L287.123 353.459L285.444 354.782L280.324 359.102L279.099 360.191L274.139 364.831L272.992 365.959L268.352 370.759L266.903 372.364L262.583 377.484L261.62 378.681L257.46 384.121L256.137 385.986L252.457 391.586L251.559 393.036L248.199 398.796L247.218 400.609L244.178 406.689L243.466 408.213L240.746 414.453L240.213 415.752L237.813 421.992L237.029 424.284L235.109 430.684L234.671 432.297L233.071 438.857L232.595 441.179L231.475 447.899L231.264 449.377L230.464 456.097L230.321 457.6L229.841 464.32L229.76 466.599V473.319L229.841 475.599L230.321 482.319L230.464 483.822L231.264 490.542L231.475 492.02L232.595 498.74L233.071 501.062L234.671 507.622L235.109 509.235L237.029 515.635L237.813 517.927L240.213 524.167L240.746 525.466L243.466 531.706L244.178 533.23L247.218 539.31L248.199 541.123L251.559 546.883L252.457 548.333L256.137 553.933L257.461 555.798L261.621 561.238L262.583 562.435L266.902 567.555L268.352 569.16L272.992 573.96L274.139 575.088L279.099 579.728L280.324 580.817L285.444 585.137L287.123 586.46L292.563 590.46L294.291 591.646L300.051 595.326L302.064 596.51L307.984 599.71L308.582 600.026L314.502 603.066L316.974 604.205L323.214 606.765L324.789 607.363L331.189 609.603L332.771 610.111L339.331 612.031L341.459 612.575L348.019 614.015L349.494 614.303L356.054 615.423L358.406 615.735L365.126 616.375L366.638 616.483L373.358 616.803L375.624 616.831L382.504 616.671L384.04 616.598L390.76 616.118L392.354 615.964L398.914 615.164L401.028 614.834L407.748 613.554L410.052 613.026L416.612 611.267L418.211 610.793L424.611 608.713L426.207 608.146L432.447 605.746L433.747 605.214L439.987 602.494L442.417 601.31L448.337 598.11L449.244 597.6L455.004 594.24L456.977 592.991L462.577 589.151L464.284 587.895L469.564 583.735L470.832 582.682L475.952 578.202L477.507 576.747L482.307 571.947L483.427 570.769L487.907 565.809L489.296 564.163L493.456 558.883L494.101 558.036L498.101 552.596L499.625 550.326L503.145 544.566L503.991 543.096L507.191 537.176L507.96 535.658L510.84 529.578L511.525 528.025L514.085 521.785L514.913 519.53L516.993 513.13L517.467 511.532L519.227 504.972L519.576 503.54L521.016 496.98L521.438 494.645L522.398 487.925L522.576 486.433L523.216 479.713L523.351 477.441L523.511 470.721L523.52 469.959L523.52 77.9946L529.016 81.0004L538.254 86.4256L547.352 92.1485L556.204 98.0984L564.764 104.337L573.178 110.865L581.432 117.793L589.298 124.657L596.623 131.841L604.248 139.766L611.51 147.608L618.33 155.734L625.003 164.004L631.133 172.414L637.18 181.263L643.35 190.828C652.932 205.678 672.737 209.95 687.588 200.369C702.439 190.788 706.711 170.982 697.129 156.131L690.729 146.211L690.261 145.505L683.701 135.905L683.141 135.112L676.261 125.672L675.302 124.423L667.942 115.303L667.551 114.828L660.031 105.868L659 104.698L651 96.0584L650.578 95.6113L642.418 87.1313L641.767 86.4734L633.447 78.3134L632.081 77.0499L623.281 69.3699L622.812 68.9683L613.852 61.4483L612.896 60.6767L603.616 53.4767L602.847 52.8989L593.407 46.0189L592.411 45.3211L582.651 38.7611L581.838 38.2327L571.918 31.9927L571.085 31.4863L561.005 25.5663L560.154 25.0836L549.914 19.4836L548.521 18.7654L537.961 13.6454L537.077 13.2335L526.357 8.43356L525.619 8.11413L514.899 3.63409L513.843 3.21476ZM287.994 170.087C304.854 164.788 314.227 146.825 308.928 129.965C303.629 113.105 285.665 103.733 268.805 109.032L257.605 112.552L256.299 112.993L245.259 116.993L244.732 117.19L233.852 121.35L232.569 121.872L221.849 126.512L220.599 127.085L210.039 132.205L209.514 132.466L199.114 137.746L197.912 138.389L187.672 144.149L186.638 144.756L176.718 150.836L176.092 151.23L166.172 157.63L165.169 158.304L155.569 165.024L154.58 165.745L145.3 172.785L144.543 173.377L135.423 180.737L134.479 181.53L125.679 189.21L125.216 189.621L116.576 197.461L115.452 198.532L107.132 206.852L106.483 207.52L98.4834 216L97.6503 216.918L89.9703 225.718L89.3907 226.402L81.8707 235.522L81.0658 236.539L74.0258 245.819L73.6594 246.312L66.7794 255.752L65.8801 257.052L59.4801 266.812L58.9567 267.637L52.8767 277.557L52.4564 278.263L46.5364 288.503L45.8848 289.688L40.4448 300.088L39.8358 301.315L34.8758 311.875L34.634 312.402L29.834 323.122L29.3593 324.239L25.0393 334.959L24.6338 336.019L20.6338 347.059L20.3189 347.971L16.6389 359.171L16.2712 360.368L13.0712 371.568L12.8212 372.496L9.94124 383.856L9.63259 385.193L7.23257 396.713L7.0832 397.476L5.00321 408.836L4.83716 409.831L3.07715 421.511L2.91037 422.793L1.63037 434.473L1.51473 435.773L0.714739 447.453L0.666931 448.325L0.18692 460.005L0.162933 460.881L0.00292969 472.561L0.0119305 473.876L0.331938 485.556L0.367868 486.43L1.00788 498.11L1.10606 499.414L2.22606 511.094L2.32705 512.009L3.76706 523.529L3.95534 524.82L5.87532 536.34L6.02825 537.187L8.26827 548.707L8.55957 550.051L11.2795 561.411L11.4876 562.232L14.5277 573.592L14.9121 574.914L18.4322 586.114L18.6021 586.639L22.2821 597.679L22.6953 598.843L26.8553 609.883L27.4328 611.311L32.0728 622.031L32.4758 622.924L37.4358 633.484L37.7783 634.19L43.0583 644.75L43.6041 645.793L49.204 656.033L49.6868 656.885L55.6068 666.965L56.2393 667.997L62.4792 677.757L63.0832 678.667L69.8032 688.427L70.4539 689.337L77.3339 698.617L77.968 699.444L85.328 708.724L86.0725 709.628L93.5925 718.428L94.4397 719.381L102.44 728.021L102.862 728.468L111.022 736.948L111.9 737.826L120.22 745.826L121.113 746.653L129.913 754.493L130.628 755.111L139.588 762.631L140.544 763.402L149.824 770.602L150.592 771.18L160.032 778.06L161.029 778.758L170.789 785.318L171.602 785.846L181.522 792.086L182.354 792.593L192.434 798.513L193.627 799.179L203.867 804.619L204.569 804.981L215.129 810.261L216.363 810.845L227.083 815.645L227.821 815.965L238.541 820.445L239.979 821.006L251.019 825.006L251.801 825.277L262.841 828.957L263.765 829.25L274.965 832.61L276.296 832.978L287.656 835.858L288.069 835.96L299.428 838.68L301.194 839.05L312.714 841.13L313.632 841.282L325.312 843.042L326.111 843.152L337.631 844.592L338.979 844.732L350.659 845.692L351.529 845.752L363.209 846.392L364.522 846.437L376.202 846.596H377.078L388.758 846.437L390.047 846.393L401.887 845.753L402.817 845.689L414.337 844.729L415.595 844.599L427.276 843.159L428.193 843.032L439.713 841.273L440.988 841.051L452.508 838.811L453.342 838.637L464.862 836.077L465.889 835.831L477.089 832.951L478.315 832.61L489.515 829.25L490.309 829L501.509 825.32L502.948 824.809L513.828 820.649L514.584 820.349L525.464 815.869L526.357 815.485L537.077 810.685L538.134 810.189L548.534 805.069L549.571 804.535L559.971 798.935L560.676 798.543L570.756 792.783L571.918 792.086L581.838 785.846L582.651 785.318L592.411 778.758L593.407 778.06L602.847 771.18L603.829 770.436L612.949 763.236L613.478 762.809L622.598 755.289L623.744 754.297L632.384 746.458L633.068 745.818L641.548 737.658L642.206 737.006L650.366 728.686L651.218 727.783L659.058 719.143L659.871 718.211L667.391 709.251L667.782 708.776L675.142 699.656L676.101 698.407L682.981 688.967L683.335 688.47L690.055 678.87L690.927 677.558L697.167 667.638L697.481 667.127L703.561 657.047L704.236 655.873L709.836 645.633L710.293 644.766L715.573 634.366L716.246 632.957L721.046 622.237L721.207 621.871L725.847 611.151L726.37 609.868L730.53 598.988L730.91 597.938L734.75 586.738L735.13 585.555L738.49 574.355L738.722 573.542L741.763 562.342L742 561.411L744.72 550.051L745.012 548.707L747.252 537.187L747.404 536.34L749.325 524.82L749.519 523.475L750.959 511.795L751.054 510.934L752.174 499.254L752.272 497.95L752.912 486.27L752.948 485.396L753.268 473.716L753.277 472.401L753.117 460.721L753.093 459.846L752.613 448.166L752.565 447.293L751.765 435.613L751.649 434.314L750.37 422.634L750.193 421.287L748.433 409.767C745.764 392.296 729.438 380.297 711.967 382.966C694.497 385.635 682.498 401.962 685.167 419.432L686.824 430.281L687.959 440.638L688.685 451.229L689.129 462.036L689.274 472.621L688.984 483.204L688.404 493.796L687.387 504.394L686.084 514.969L684.346 525.394L682.319 535.817L679.872 546.04L677.068 556.369L674.008 566.568L670.551 576.653L666.837 586.365L662.554 596.261L658.153 606.09L653.449 615.356L648.409 624.572L642.834 633.813L637.173 642.814L631.079 651.52L624.843 660.075L618.171 668.344L611.246 676.594L604.24 684.315L596.837 691.863L589.03 699.376L581.297 706.393L573.025 713.213L564.655 719.822L556.204 725.98L547.351 731.931L538.415 737.552L529.275 742.775L519.742 747.908L510.391 752.512L500.646 756.875L490.593 761.015L480.804 764.757L470.727 768.068L460.534 771.126L450.462 773.716L439.875 776.069L429.408 778.104L418.984 779.697L408.393 781.003L397.967 781.871L387.237 782.451L376.64 782.596L366.055 782.451L355.466 781.871L344.896 781.003L334.451 779.697L323.627 778.066L313.454 776.229L303.176 773.768L292.694 771.111L282.619 768.088L272.433 764.693L262.507 761.096L252.87 757.069L243.14 752.713L233.544 747.915L224.256 742.98L215.186 737.653L206.09 731.931L197.235 725.98L188.676 719.742L180.262 713.214L172.134 706.392L164.14 699.271L156.708 692.124L149.192 684.313L141.833 676.366L135.107 668.495L128.436 660.084L122.199 651.671L116.107 642.823L110.486 634.032L105.121 624.896L100.039 615.603L95.1972 605.92L90.6122 596.158L86.473 586.595L82.8026 576.855L79.4048 566.661L76.1742 556.382L73.4217 546.096L70.9604 535.817L68.9338 525.394L67.1919 514.943L65.8899 504.527L64.8763 493.956L64.2959 483.365L64.0059 472.78L64.1509 462.196L64.595 451.39L65.3206 440.797L66.4591 430.408L68.0475 419.867L69.9666 409.385L72.1473 398.918L74.7406 388.689L77.6366 378.553L80.9703 368.407L84.6127 358.354L88.4937 348.723L92.9272 338.822L97.4728 329.144L102.282 319.95L107.658 310.651L113.268 301.498L118.966 292.808L125.2 284.255L131.662 275.737L138.484 267.463L145.462 259.467L152.717 251.778L160.158 244.336L167.995 237.225L176.096 230.155L184.363 223.483L192.772 217.104L201.376 211.081L210.477 205.209L219.571 199.636L228.694 194.504L238.224 189.666L247.902 184.973L257.355 180.882L267.325 177.07L277.452 173.401L287.994 170.087Z" fill="#EF573D"/>
<circle cx="377" cy="471" r="35" fill="#EF573D"/>
</svg>
